<svg xmlns="http://www.w3.org/2000/svg" viewBox="0 0 1200 630" width="1200" height="630">
  <!-- Texto OUTLINEADO a paths (font-independiente). Wordmark = Newsreader 500
       (=.fb-nameplate); apoyo = Inter 400. Re-generar: scripts/build_og_svg.py. -->
  <rect width="1200" height="630" fill="#F7E4D7"/>
  <rect x="100" y="315" width="48" height="120" rx="6" fill="#211E1B"/>
  <rect x="168" y="275" width="48" height="160" rx="6" fill="#211E1B"/>
  <rect x="236" y="235" width="48" height="200" rx="6" fill="#211E1B"/>
  <g fill="#211E1B">
    <path transform="translate(380.00 295.00) scale(0.05000 -0.05000)" d="M973.0018920898438 1017.4003295898438 935.0016479492188 716.3998413085938 973.0018920898438 417.39935302734375H949.0017700195312L832.4014282226562 676.3995361328125L364.4036865234375 700.1995239257812V733.8001708984375L832.4014282226562 761.2001342773438L949.0017700195312 1017.4003295898438ZM1122.2022705078125 1491.0004272460938H1132.8024291992188L1238.4024047851562 1022.19921875L1210.6022338867188 1014.1991577148438L963.001708984375 1393.39990234375L1120.201904296875 1361.99951171875H332.801513671875V1430H988.802001953125ZM502.00299072265625 1430V74.00018310546875L673.8025512695312 30.80010986328125V0H63.79974365234375V30.80010986328125L235.59930419921875 74.00018310546875V1356.9998168945312L63.79974365234375 1398.9998779296875V1430Z"/>
    <path transform="translate(441.90 295.00) scale(0.05000 -0.05000)" d="M284.801025390625 1185.9990234375Q216.20068359375 1185.9990234375 176.40048217773438 1231.6991882324219Q136.60028076171875 1277.3993530273438 136.60028076171875 1335.1996459960938Q136.60028076171875 1392.39990234375 176.40048217773438 1433.6000671386719Q216.20068359375 1474.8002319335938 284.801025390625 1474.8002319335938Q353.60137939453125 1474.8002319335938 391.5015869140625 1433.6000671386719Q429.40179443359375 1392.39990234375 429.40179443359375 1335.1996459960938Q429.40179443359375 1277.3993530273438 391.5015869140625 1231.6991882324219Q353.60137939453125 1185.9990234375 284.801025390625 1185.9990234375ZM416.802490234375 1054.7999877929688V855.19970703125V58.60009765625L546.20166015625 28.2000732421875V0H50.40008544921875V28.2000732421875L181.9993896484375 59.20013427734375V832.3985595703125Q170.9993896484375 840.7986450195312 150.49948120117188 855.6986999511719Q129.99957275390625 870.5987548828125 103.09967041015625 890.4988708496094Q76.19976806640625 910.3989868164062 45.19976806640625 933.3992309570312V954.3994140625L408.20220947265625 1054.7999877929688Z"/>
    <path transform="translate(469.95 295.00) scale(0.05000 -0.05000)" d="M414.2025146484375 845.3991088867188V58.60009765625L543.6016845703125 28.2000732421875V0H47.80010986328125V28.2000732421875L179.3994140625 59.20013427734375V832.3985595703125Q163.19940185546875 844.9987182617188 133.29937744140625 867.9989929199219Q103.39935302734375 890.999267578125 42.59979248046875 933.3992309570312V954.3994140625L405.60223388671875 1054.7999877929688H414.2025146484375ZM700.200439453125 28.2000732421875 830.3995971679688 58.60009765625V691.5994873046875Q830.3995971679688 754.7992553710938 809.0997314453125 796.0990295410156Q787.7998657226562 837.3988037109375 744.400146484375 857.5986633300781Q701.0004272460938 877.7985229492188 632.40087890625 877.7985229492188Q562.6014404296875 877.7985229492188 498.3018798828125 858.7986755371094Q434.0023193359375 839.798828125 386.2022705078125 816.5988159179688L375.80242919921875 836.7987670898438Q453.6024169921875 902.7992553710938 510.4023742675781 943.8995056152344Q567.2023315429688 984.999755859375 612.0023193359375 1006.6998596191406Q656.8023071289062 1028.3999633789062 698.0023803710938 1036.1999816894531Q739.2024536132812 1044 787.20263671875 1044Q931.6024780273438 1044 998.402587890625 966.0000305175781Q1065.2026977539062 888.0000610351562 1065.2026977539062 725.00048828125V59.20013427734375L1196.6019897460938 28.2000732421875V0H700.200439453125Z"/>
    <path transform="translate(530.20 295.00) scale(0.05000 -0.05000)" d="M693.5993041992188 660.5996704101562 700.5990600585938 615.7994995117188Q576.2000732421875 575.7997436523438 499.1007080078125 539.0999450683594Q422.0013427734375 502.400146484375 381.40167236328125 465.00030517578125Q340.802001953125 427.6004638671875 325.8021240234375 385.80059814453125Q310.80224609375 344.000732421875 310.80224609375 293.0008544921875Q310.80224609375 208.40093994140625 355.3019104003906 167.10107421875Q399.80157470703125 125.80120849609375 465.80120849609375 125.80120849609375Q516.4007568359375 125.80120849609375 553.8004150390625 145.7010498046875Q591.2000732421875 165.60089111328125 612.3998718261719 204.900634765625Q633.5996704101562 244.20037841796875 633.5996704101562 302.60009765625V766.400390625Q633.5996704101562 862.3999633789062 585.3998107910156 912.9998168945312Q537.199951171875 963.5996704101562 438.6002197265625 963.5996704101562Q390.80029296875 963.5996704101562 345.0005187988281 957.1997375488281Q299.20074462890625 950.7998046875 272.00079345703125 938.7999267578125L321.6005859375 984.80029296875Q317.20050048828125 937.9996948242188 310.30047607421875 896.6995849609375Q303.40045166015625 855.3994750976562 294.0004577636719 824.6995544433594Q284.6004638671875 793.9996337890625 271.80047607421875 777.7996215820312Q257.8004150390625 759.99951171875 229.50030517578125 749.3994140625Q201.2001953125 738.79931640625 169.5999755859375 738.79931640625Q128.59967041015625 738.79931640625 106.099609375 754.1993713378906Q83.59954833984375 769.5994262695312 83.59954833984375 800.3994140625Q83.59954833984375 843.3994750976562 125.399658203125 886.6995849609375Q167.19976806640625 929.9996948242188 234.70001220703125 966.0998229980469Q302.20025634765625 1002.199951171875 382.4006652832031 1024.1000366210938Q462.60107421875 1046.0001220703125 539.20166015625 1046.0001220703125Q659.0020751953125 1046.0001220703125 731.1023254394531 1011.2000122070312Q803.2025756835938 976.39990234375 835.8026733398438 913.2996826171875Q868.4027709960938 850.199462890625 868.4027709960938 764.7991333007812V188.8001708984375Q868.4027709960938 158.2003173828125 878.1027221679688 139.400390625Q887.8026733398438 120.6004638671875 905.7026062011719 112.10049438476562Q923.6025390625 103.60052490234375 946.6024780273438 103.60052490234375Q977.8023071289062 103.60052490234375 1008.5021362304688 113.200439453125Q1039.2019653320312 122.80035400390625 1072.0017700195312 144.20013427734375V110.19970703125Q997.001708984375 27 936.7015075683594 2.49993896484375Q876.4013061523438 -22.0001220703125 808.2008056640625 -22.0001220703125Q743.6004638671875 -22.0001220703125 705.8002319335938 5.199920654296875Q668 32.39996337890625 651.3998718261719 85.60015869140625Q634.7997436523438 138.80035400390625 631.7997436523438 216.40081787109375L637.9999389648438 213.400634765625Q619.9998779296875 142.00018310546875 581.599853515625 89.20004272460938Q543.1998291015625 36.39990234375 488.7998046875 7.499908447265625Q434.3997802734375 -21.40008544921875 368.19970703125 -21.40008544921875Q237.59930419921875 -21.40008544921875 156.29940795898438 46.300018310546875Q74.99951171875 114.0001220703125 74.99951171875 238.800048828125Q74.99951171875 303.5999755859375 97.19949340820312 353.7999572753906Q119.39947509765625 403.99993896484375 183.2994384765625 449.59991455078125Q247.19940185546875 495.19989013671875 370.099365234375 545.3998413085938Q492.99932861328125 595.5997924804688 693.5993041992188 660.5996704101562Z"/>
    <path transform="translate(581.80 295.00) scale(0.05000 -0.05000)" d="M414.2025146484375 845.3991088867188V58.60009765625L543.6016845703125 28.2000732421875V0H47.80010986328125V28.2000732421875L179.3994140625 59.20013427734375V832.3985595703125Q163.19940185546875 844.9987182617188 133.29937744140625 867.9989929199219Q103.39935302734375 890.999267578125 42.59979248046875 933.3992309570312V954.3994140625L405.60223388671875 1054.7999877929688H414.2025146484375ZM700.200439453125 28.2000732421875 830.3995971679688 58.60009765625V691.5994873046875Q830.3995971679688 754.7992553710938 809.0997314453125 796.0990295410156Q787.7998657226562 837.3988037109375 744.400146484375 857.5986633300781Q701.0004272460938 877.7985229492188 632.40087890625 877.7985229492188Q562.6014404296875 877.7985229492188 498.3018798828125 858.7986755371094Q434.0023193359375 839.798828125 386.2022705078125 816.5988159179688L375.80242919921875 836.7987670898438Q453.6024169921875 902.7992553710938 510.4023742675781 943.8995056152344Q567.2023315429688 984.999755859375 612.0023193359375 1006.6998596191406Q656.8023071289062 1028.3999633789062 698.0023803710938 1036.1999816894531Q739.2024536132812 1044 787.20263671875 1044Q931.6024780273438 1044 998.402587890625 966.0000305175781Q1065.2026977539062 888.0000610351562 1065.2026977539062 725.00048828125V59.20013427734375L1196.6019897460938 28.2000732421875V0H700.200439453125Z"/>
    <path transform="translate(642.05 295.00) scale(0.05000 -0.05000)" d="M61.5997314453125 0V24.00030517578125L662.7991943359375 1011.1997680664062L728.60107421875 971.999755859375L145.19927978515625 956.7999877929688L224.200439453125 993.3999633789062L88.19976806640625 670.1998291015625H54.399658203125L117.1998291015625 1096.0001220703125H133.3997802734375L210.80023193359375 1024H902.6021118164062V1000.5996704101562L298.80242919921875 9.79986572265625L212.79998779296875 48.80029296875L806.8021240234375 71.199951171875L726.4013061523438 22.5999755859375L917.40234375 391.20062255859375H953.00244140625L854.2022094726562 0Z"/>
    <path transform="translate(689.95 295.00) scale(0.05000 -0.05000)" d="M693.5993041992188 660.5996704101562 700.5990600585938 615.7994995117188Q576.2000732421875 575.7997436523438 499.1007080078125 539.0999450683594Q422.0013427734375 502.400146484375 381.40167236328125 465.00030517578125Q340.802001953125 427.6004638671875 325.8021240234375 385.80059814453125Q310.80224609375 344.000732421875 310.80224609375 293.0008544921875Q310.80224609375 208.40093994140625 355.3019104003906 167.10107421875Q399.80157470703125 125.80120849609375 465.80120849609375 125.80120849609375Q516.4007568359375 125.80120849609375 553.8004150390625 145.7010498046875Q591.2000732421875 165.60089111328125 612.3998718261719 204.900634765625Q633.5996704101562 244.20037841796875 633.5996704101562 302.60009765625V766.400390625Q633.5996704101562 862.3999633789062 585.3998107910156 912.9998168945312Q537.199951171875 963.5996704101562 438.6002197265625 963.5996704101562Q390.80029296875 963.5996704101562 345.0005187988281 957.1997375488281Q299.20074462890625 950.7998046875 272.00079345703125 938.7999267578125L321.6005859375 984.80029296875Q317.20050048828125 937.9996948242188 310.30047607421875 896.6995849609375Q303.40045166015625 855.3994750976562 294.0004577636719 824.6995544433594Q284.6004638671875 793.9996337890625 271.80047607421875 777.7996215820312Q257.8004150390625 759.99951171875 229.50030517578125 749.3994140625Q201.2001953125 738.79931640625 169.5999755859375 738.79931640625Q128.59967041015625 738.79931640625 106.099609375 754.1993713378906Q83.59954833984375 769.5994262695312 83.59954833984375 800.3994140625Q83.59954833984375 843.3994750976562 125.399658203125 886.6995849609375Q167.19976806640625 929.9996948242188 234.70001220703125 966.0998229980469Q302.20025634765625 1002.199951171875 382.4006652832031 1024.1000366210938Q462.60107421875 1046.0001220703125 539.20166015625 1046.0001220703125Q659.0020751953125 1046.0001220703125 731.1023254394531 1011.2000122070312Q803.2025756835938 976.39990234375 835.8026733398438 913.2996826171875Q868.4027709960938 850.199462890625 868.4027709960938 764.7991333007812V188.8001708984375Q868.4027709960938 158.2003173828125 878.1027221679688 139.400390625Q887.8026733398438 120.6004638671875 905.7026062011719 112.10049438476562Q923.6025390625 103.60052490234375 946.6024780273438 103.60052490234375Q977.8023071289062 103.60052490234375 1008.5021362304688 113.200439453125Q1039.2019653320312 122.80035400390625 1072.0017700195312 144.20013427734375V110.19970703125Q997.001708984375 27 936.7015075683594 2.49993896484375Q876.4013061523438 -22.0001220703125 808.2008056640625 -22.0001220703125Q743.6004638671875 -22.0001220703125 705.8002319335938 5.199920654296875Q668 32.39996337890625 651.3998718261719 85.60015869140625Q634.7997436523438 138.80035400390625 631.7997436523438 216.40081787109375L637.9999389648438 213.400634765625Q619.9998779296875 142.00018310546875 581.599853515625 89.20004272460938Q543.1998291015625 36.39990234375 488.7998046875 7.499908447265625Q434.3997802734375 -21.40008544921875 368.19970703125 -21.40008544921875Q237.59930419921875 -21.40008544921875 156.29940795898438 46.300018310546875Q74.99951171875 114.0001220703125 74.99951171875 238.800048828125Q74.99951171875 303.5999755859375 97.19949340820312 353.7999572753906Q119.39947509765625 403.99993896484375 183.2994384765625 449.59991455078125Q247.19940185546875 495.19989013671875 370.099365234375 545.3998413085938Q492.99932861328125 595.5997924804688 693.5993041992188 660.5996704101562Z"/>
    <path transform="translate(741.55 295.00) scale(0.05000 -0.05000)" d="M474.400634765625 1046.0001220703125Q547.4009399414062 1046.0001220703125 605.0010986328125 1032.1001586914062Q662.6012573242188 1018.2001953125 723.0014038085938 990.4002685546875L757.2015991210938 714.8001708984375H726.0015869140625L586.200927734375 987.400146484375L668.201171875 898.2001953125Q613.8011474609375 953.4000244140625 566.9010620117188 975.8999633789062Q520.0009765625 998.39990234375 457.60113525390625 998.39990234375Q370.401123046875 998.39990234375 323.40118408203125 961.0000610351562Q276.4012451171875 923.6002197265625 276.4012451171875 851.4004516601562Q276.4012451171875 812.0005493164062 292.9012756347656 778.8006591796875Q309.40130615234375 745.6007690429688 360.8013610839844 713.1008911132812Q412.201416015625 680.6010131835938 518.6015014648438 641.8011474609375Q597.6015625 613.4012451171875 650.4016418457031 578.7012634277344Q703.2017211914062 544.0012817382812 733.9017944335938 503.4012145996094Q764.6018676757812 462.8011474609375 777.5019226074219 415.301025390625Q790.4019775390625 367.8009033203125 790.4019775390625 312.80072021484375Q790.4019775390625 214.00048828125 736.0018615722656 138.40029907226562Q681.6017456054688 62.80010986328125 590.4014282226562 20.399993896484375Q499.20111083984375 -22.0001220703125 386.4005126953125 -22.0001220703125Q303.00006103515625 -22.0001220703125 238.79986572265625 -7.0001220703125Q174.59967041015625 7.9998779296875 119.999755859375 36.59979248046875L63.7998046875 353.39990234375H99.39984130859375L272.80029296875 29.39996337890625L219.40008544921875 83.800048828125Q246.0001220703125 64.800048828125 275.4001770019531 52.300048828125Q304.80023193359375 39.800048828125 336.30029296875 33.400054931640625Q367.80035400390625 27.00006103515625 399.400390625 27.00006103515625Q484.40045166015625 27.00006103515625 549.3002624511719 74.39993286132812Q614.2000732421875 121.7998046875 614.2000732421875 217.99957275390625Q614.2000732421875 254.79949951171875 602.1000671386719 285.4994201660156Q590.0000610351562 316.1993408203125 561.800048828125 343.3992614746094Q533.6000366210938 370.59918212890625 485.3000183105469 396.1990966796875Q437 421.79901123046875 363.5999755859375 447.19891357421875Q266.199951171875 481.79876708984375 208.7998046875 525.6986999511719Q151.399658203125 569.5986328125 126.69952392578125 625.398681640625Q101.9993896484375 681.19873046875 101.9993896484375 750.39892578125Q101.9993896484375 843.7991943359375 152.5994873046875 909.7994689941406Q203.1995849609375 975.7997436523438 287.6998596191406 1010.8999328613281Q372.20013427734375 1046.0001220703125 474.400634765625 1046.0001220703125Z"/>
    <path transform="translate(783.70 295.00) scale(0.05000 -0.05000)" d="M283.20111083984375 1368.3994140625 388.6015625 1430H738.8032836914062Q897.2034912109375 1430 995.6058461203504 1388.0Q1094.0082010297633 1346 1139.5060231223035 1272.5Q1185.0038452148438 1199 1185.0038452148438 1104Q1185.0038452148438 957 1076.8446835511481 870.5Q968.6855218874528 784 801.6034545898438 767L831.6033325195312 783Q1049.2034912109375 766.2000122070312 1170.8035278320312 661.4850268094044Q1292.403564453125 556.7700414117777 1292.403564453125 400.39984130859375Q1292.403564453125 288.19976806640625 1234.4725198842843 197.38001791636148Q1176.5414753154437 106.56026776631673 1047.4817059860695 53.28013388315836Q918.4219366566955 0 704.2031860351562 0H389.6015625L307.8009033203125 61.6005859375H661.6016845703125Q777.2261187184854 61.6005859375 860.1135781580708 97.800537109375Q943.0010375976562 134.00048828125 987.700927734375 209.42614326968214Q1032.4008178710938 284.8517982581143 1032.4008178710938 403.400146484375Q1032.4008178710938 499.57385320490056 995.8891074613014 573.5759436035156Q959.3773970515091 647.5780340021307 883.5676538692499 689.3889010342684Q807.7579106869905 731.1997680664062 688.6016845703125 731.1997680664062H306.8009033203125L283.20111083984375 792.8003540039062H680.0020141601562Q798.016452163013 792.8003540039062 868.3087021557253 865.500244140625Q938.6009521484375 938.2001342773438 938.6009521484375 1084.9897250257773Q938.6009521484375 1170.7997436523438 903.7010803222656 1234.4996337890625Q868.8012084960938 1298.1995239257812 794.2940286028334 1333.2994689941406Q719.7868487095728 1368.3994140625 600.0020751953125 1368.3994140625ZM62.59967041015625 0V30.80010986328125L236.39935302734375 75.60028076171875V1355.3997192382812L62.59967041015625 1398.9427315848213V1430H502.80303955078125V0Z"/>
    <path transform="translate(851.05 295.00) scale(0.05000 -0.05000)" d="M574.800537109375 29.00030517578125Q661.39990234375 29.00030517578125 718.8993835449219 81.20013427734375Q776.3988647460938 133.39996337890625 804.7985534667969 238.79977416992188Q833.1982421875 344.1995849609375 833.1982421875 502.99951171875Q833.1982421875 665.3995971679688 805.3985595703125 774.4996337890625Q777.598876953125 883.5996704101562 721.099365234375 939.1996765136719Q664.599853515625 994.7996826171875 578.400390625 994.7996826171875Q491.801025390625 994.7996826171875 434.40155029296875 942.599853515625Q377.0020751953125 890.4000244140625 348.50238037109375 785.1002197265625Q320.002685546875 679.8004150390625 320.002685546875 521.00048828125Q320.002685546875 359.400390625 347.8023681640625 249.80035400390625Q375.60205078125 140.2003173828125 432.1015625 84.60031127929688Q488.60107421875 29.00030517578125 574.800537109375 29.00030517578125ZM569.600341796875 -22.0001220703125Q427.5999755859375 -22.0001220703125 313.89984130859375 45.9998779296875Q200.19970703125 113.9998779296875 133.89968872070312 234.4998779296875Q67.59967041015625 354.9998779296875 67.59967041015625 511.59991455078125Q67.59967041015625 669 136.39974975585938 789.6000366210938Q205.1998291015625 910.2000732421875 322.10003662109375 978.10009765625Q439.000244140625 1046.0001220703125 583.6005859375 1046.0001220703125Q728.6009521484375 1046.0001220703125 841.9010925292969 978.1001281738281Q955.2012329101562 910.2001342773438 1020.5012512207031 790.0001220703125Q1085.80126953125 669.8001098632812 1085.80126953125 512.4000854492188Q1085.80126953125 355 1015.9011840820312 234.29995727539062Q946.0010986328125 113.59991455078125 828.8009033203125 45.799896240234375Q711.6007080078125 -22.0001220703125 569.600341796875 -22.0001220703125Z"/>
  </g>
  <g fill="#211E1B">
    <path transform="translate(380.00 350.00) scale(0.01562 -0.01562)" d="M370 1490V0H180V1490Z"/>
    <path transform="translate(388.59 350.00) scale(0.01562 -0.01562)" d="M338 670V0H158V1118H331L332 847H307Q358 1002 452.5 1067.0Q547 1132 674 1132Q787 1132 872.0 1085.5Q957 1039 1004.5 945.5Q1052 852 1052 710V0H872V695Q872 824 804.5 897.0Q737 970 620 970Q540 970 476.0 935.0Q412 900 375.0 833.0Q338 766 338 670Z"/>
    <path transform="translate(407.50 350.00) scale(0.01562 -0.01562)" d="M678 1118V964H20V1118ZM240 0V1267Q240 1364 285.5 1429.0Q331 1494 404.0 1527.0Q477 1560 558 1560Q622 1560 664.0 1549.5Q706 1539 726 1530L676 1376Q662 1381 639.5 1387.0Q617 1393 579 1393Q496 1393 458.0 1350.5Q420 1308 420 1227V0Z"/>
    <path transform="translate(419.34 350.00) scale(0.01562 -0.01562)" d="M613 -24Q461 -24 346.5 48.0Q232 120 168.0 250.0Q104 380 104 552Q104 727 168.0 857.5Q232 988 346.5 1060.0Q461 1132 613 1132Q766 1132 881.0 1060.0Q996 988 1060.0 857.5Q1124 727 1124 552Q1124 380 1060.0 250.0Q996 120 881.0 48.0Q766 -24 613 -24ZM613 137Q726 137 799.0 195.0Q872 253 907.0 347.5Q942 442 942 552Q942 663 907.0 758.5Q872 854 799.0 912.5Q726 971 613 971Q501 971 429.0 912.5Q357 854 322.0 759.0Q287 664 287 552Q287 442 322.0 347.5Q357 253 429.0 195.0Q501 137 613 137Z"/>
    <path transform="translate(438.53 350.00) scale(0.01562 -0.01562)" d="M158 0V1118H332V946H344Q375 1031 454.5 1082.5Q534 1134 634 1134Q654 1134 681.5 1133.0Q709 1132 725 1131V950Q717 952 685.0 956.0Q653 960 617 960Q537 960 473.5 926.5Q410 893 374.0 834.5Q338 776 338 700V0Z"/>
    <path transform="translate(450.58 350.00) scale(0.01562 -0.01562)" d="M158 0V1118H333L334 868H320Q343 959 392.5 1018.5Q442 1078 508.5 1108.0Q575 1138 647 1138Q769 1138 844.5 1063.0Q920 988 942 866H918Q938 950 991.0 1011.0Q1044 1072 1119.5 1105.0Q1195 1138 1284 1138Q1381 1138 1461.0 1096.0Q1541 1054 1588.5 969.0Q1636 884 1636 754V0H1456V749Q1456 870 1388.0 922.0Q1320 974 1230 974Q1155 974 1100.5 942.5Q1046 911 1016.5 856.0Q987 801 987 730V0H807V767Q807 860 745.0 917.0Q683 974 588 974Q523 974 465.5 943.5Q408 913 373.0 853.0Q338 793 338 704V0Z"/>
    <path transform="translate(478.61 350.00) scale(0.01562 -0.01562)" d="M471 -26Q365 -26 278.5 14.0Q192 54 141.0 131.0Q90 208 90 318Q90 414 128.0 474.0Q166 534 229.5 568.5Q293 603 370.0 620.0Q447 637 525 647Q625 660 688.0 667.0Q751 674 781.5 691.0Q812 708 812 749V755Q812 825 786.0 873.5Q760 922 708.0 948.0Q656 974 578 974Q498 974 441.0 949.0Q384 924 348.5 886.5Q313 849 295 810L122 867Q165 969 238.0 1026.5Q311 1084 399.0 1108.0Q487 1132 573 1132Q629 1132 700.5 1118.5Q772 1105 838.5 1065.0Q905 1025 948.5 946.5Q992 868 992 737V0H815V152H803Q784 113 742.0 71.5Q700 30 633.0 2.0Q566 -26 471 -26ZM502 133Q602 133 671.0 172.0Q740 211 776.0 273.5Q812 336 812 404V559Q801 546 764.0 535.5Q727 525 679.5 517.0Q632 509 587.5 503.5Q543 498 517 495Q452 487 395.5 467.5Q339 448 305.0 410.5Q271 373 271 309Q271 251 301.0 212.0Q331 173 383.0 153.0Q435 133 502 133Z"/>
    <path transform="translate(496.58 350.00) scale(0.01562 -0.01562)" d="M613 -24Q461 -24 346.5 48.0Q232 120 168.0 250.0Q104 380 104 552Q104 727 168.0 857.5Q232 988 346.5 1060.0Q461 1132 613 1132Q694 1132 766.0 1111.0Q838 1090 897.5 1050.5Q957 1011 1000.0 953.5Q1043 896 1066 823L893 774Q881 817 856.0 853.0Q831 889 795.5 915.5Q760 942 714.0 956.5Q668 971 613 971Q501 971 429.0 912.5Q357 854 322.0 759.0Q287 664 287 552Q287 442 322.0 347.5Q357 253 429.0 195.0Q501 137 613 137Q669 137 716.0 152.0Q763 167 799.5 194.5Q836 222 861.0 260.0Q886 298 898 343L1070 294Q1048 219 1004.5 160.5Q961 102 901.0 60.5Q841 19 768.0 -2.5Q695 -24 613 -24Z"/>
    <path transform="translate(514.86 350.00) scale(0.01562 -0.01562)" d="M158 0V1118H338V0ZM249 1301Q198 1301 161.0 1336.0Q124 1371 124 1420Q124 1470 161.0 1504.5Q198 1539 249 1539Q301 1539 338.0 1504.5Q375 1470 375 1420Q375 1371 338.0 1336.0Q301 1301 249 1301Z"/>
    <path transform="translate(522.61 350.00) scale(0.01562 -0.01562)" d="M613 -24Q461 -24 346.5 48.0Q232 120 168.0 250.0Q104 380 104 552Q104 727 168.0 857.5Q232 988 346.5 1060.0Q461 1132 613 1132Q766 1132 881.0 1060.0Q996 988 1060.0 857.5Q1124 727 1124 552Q1124 380 1060.0 250.0Q996 120 881.0 48.0Q766 -24 613 -24ZM613 137Q726 137 799.0 195.0Q872 253 907.0 347.5Q942 442 942 552Q942 663 907.0 758.5Q872 854 799.0 912.5Q726 971 613 971Q501 971 429.0 912.5Q357 854 322.0 759.0Q287 664 287 552Q287 442 322.0 347.5Q357 253 429.0 195.0Q501 137 613 137ZM534 1264 674 1558H875L681 1264Z"/>
    <path transform="translate(541.80 350.00) scale(0.01562 -0.01562)" d="M338 670V0H158V1118H331L332 847H307Q358 1002 452.5 1067.0Q547 1132 674 1132Q787 1132 872.0 1085.5Q957 1039 1004.5 945.5Q1052 852 1052 710V0H872V695Q872 824 804.5 897.0Q737 970 620 970Q540 970 476.0 935.0Q412 900 375.0 833.0Q338 766 338 670Z"/>
    <path transform="translate(569.70 350.00) scale(0.01562 -0.01562)" d="M628 -24Q466 -24 348.5 48.0Q231 120 167.5 249.0Q104 378 104 550Q104 722 166.0 853.0Q228 984 341.5 1058.0Q455 1132 607 1132Q696 1132 782.5 1102.5Q869 1073 939.5 1007.5Q1010 942 1052.0 835.0Q1094 728 1094 573V498H226V650H997L913 594Q913 704 878.5 789.5Q844 875 776.0 923.5Q708 972 607 972Q506 972 434.0 922.5Q362 873 324.0 793.5Q286 714 286 623V522Q286 398 329.0 311.5Q372 225 449.5 180.5Q527 136 629 136Q695 136 749.0 155.0Q803 174 842.0 212.5Q881 251 902 308L1076 260Q1050 176 988.0 112.0Q926 48 834.5 12.0Q743 -24 628 -24Z"/>
    <path transform="translate(588.36 350.00) scale(0.01562 -0.01562)" d="M613 -24Q461 -24 346.5 48.0Q232 120 168.0 250.0Q104 380 104 552Q104 727 168.0 857.5Q232 988 346.5 1060.0Q461 1132 613 1132Q694 1132 766.0 1111.0Q838 1090 897.5 1050.5Q957 1011 1000.0 953.5Q1043 896 1066 823L893 774Q881 817 856.0 853.0Q831 889 795.5 915.5Q760 942 714.0 956.5Q668 971 613 971Q501 971 429.0 912.5Q357 854 322.0 759.0Q287 664 287 552Q287 442 322.0 347.5Q357 253 429.0 195.0Q501 137 613 137Q669 137 716.0 152.0Q763 167 799.5 194.5Q836 222 861.0 260.0Q886 298 898 343L1070 294Q1048 219 1004.5 160.5Q961 102 901.0 60.5Q841 19 768.0 -2.5Q695 -24 613 -24Z"/>
    <path transform="translate(606.64 350.00) scale(0.01562 -0.01562)" d="M613 -24Q461 -24 346.5 48.0Q232 120 168.0 250.0Q104 380 104 552Q104 727 168.0 857.5Q232 988 346.5 1060.0Q461 1132 613 1132Q766 1132 881.0 1060.0Q996 988 1060.0 857.5Q1124 727 1124 552Q1124 380 1060.0 250.0Q996 120 881.0 48.0Q766 -24 613 -24ZM613 137Q726 137 799.0 195.0Q872 253 907.0 347.5Q942 442 942 552Q942 663 907.0 758.5Q872 854 799.0 912.5Q726 971 613 971Q501 971 429.0 912.5Q357 854 322.0 759.0Q287 664 287 552Q287 442 322.0 347.5Q357 253 429.0 195.0Q501 137 613 137Z"/>
    <path transform="translate(625.83 350.00) scale(0.01562 -0.01562)" d="M338 670V0H158V1118H331L332 847H307Q358 1002 452.5 1067.0Q547 1132 674 1132Q787 1132 872.0 1085.5Q957 1039 1004.5 945.5Q1052 852 1052 710V0H872V695Q872 824 804.5 897.0Q737 970 620 970Q540 970 476.0 935.0Q412 900 375.0 833.0Q338 766 338 670Z"/>
    <path transform="translate(644.73 350.00) scale(0.01562 -0.01562)" d="M613 -24Q461 -24 346.5 48.0Q232 120 168.0 250.0Q104 380 104 552Q104 727 168.0 857.5Q232 988 346.5 1060.0Q461 1132 613 1132Q766 1132 881.0 1060.0Q996 988 1060.0 857.5Q1124 727 1124 552Q1124 380 1060.0 250.0Q996 120 881.0 48.0Q766 -24 613 -24ZM613 137Q726 137 799.0 195.0Q872 253 907.0 347.5Q942 442 942 552Q942 663 907.0 758.5Q872 854 799.0 912.5Q726 971 613 971Q501 971 429.0 912.5Q357 854 322.0 759.0Q287 664 287 552Q287 442 322.0 347.5Q357 253 429.0 195.0Q501 137 613 137ZM534 1264 674 1558H875L681 1264Z"/>
    <path transform="translate(663.92 350.00) scale(0.01562 -0.01562)" d="M158 0V1118H333L334 868H320Q343 959 392.5 1018.5Q442 1078 508.5 1108.0Q575 1138 647 1138Q769 1138 844.5 1063.0Q920 988 942 866H918Q938 950 991.0 1011.0Q1044 1072 1119.5 1105.0Q1195 1138 1284 1138Q1381 1138 1461.0 1096.0Q1541 1054 1588.5 969.0Q1636 884 1636 754V0H1456V749Q1456 870 1388.0 922.0Q1320 974 1230 974Q1155 974 1100.5 942.5Q1046 911 1016.5 856.0Q987 801 987 730V0H807V767Q807 860 745.0 917.0Q683 974 588 974Q523 974 465.5 943.5Q408 913 373.0 853.0Q338 793 338 704V0Z"/>
    <path transform="translate(691.95 350.00) scale(0.01562 -0.01562)" d="M158 0V1118H338V0ZM249 1301Q198 1301 161.0 1336.0Q124 1371 124 1420Q124 1470 161.0 1504.5Q198 1539 249 1539Q301 1539 338.0 1504.5Q375 1470 375 1420Q375 1371 338.0 1336.0Q301 1301 249 1301Z"/>
    <path transform="translate(699.70 350.00) scale(0.01562 -0.01562)" d="M613 -24Q461 -24 346.5 48.0Q232 120 168.0 250.0Q104 380 104 552Q104 727 168.0 857.5Q232 988 346.5 1060.0Q461 1132 613 1132Q694 1132 766.0 1111.0Q838 1090 897.5 1050.5Q957 1011 1000.0 953.5Q1043 896 1066 823L893 774Q881 817 856.0 853.0Q831 889 795.5 915.5Q760 942 714.0 956.5Q668 971 613 971Q501 971 429.0 912.5Q357 854 322.0 759.0Q287 664 287 552Q287 442 322.0 347.5Q357 253 429.0 195.0Q501 137 613 137Q669 137 716.0 152.0Q763 167 799.5 194.5Q836 222 861.0 260.0Q886 298 898 343L1070 294Q1048 219 1004.5 160.5Q961 102 901.0 60.5Q841 19 768.0 -2.5Q695 -24 613 -24Z"/>
    <path transform="translate(717.98 350.00) scale(0.01562 -0.01562)" d="M471 -26Q365 -26 278.5 14.0Q192 54 141.0 131.0Q90 208 90 318Q90 414 128.0 474.0Q166 534 229.5 568.5Q293 603 370.0 620.0Q447 637 525 647Q625 660 688.0 667.0Q751 674 781.5 691.0Q812 708 812 749V755Q812 825 786.0 873.5Q760 922 708.0 948.0Q656 974 578 974Q498 974 441.0 949.0Q384 924 348.5 886.5Q313 849 295 810L122 867Q165 969 238.0 1026.5Q311 1084 399.0 1108.0Q487 1132 573 1132Q629 1132 700.5 1118.5Q772 1105 838.5 1065.0Q905 1025 948.5 946.5Q992 868 992 737V0H815V152H803Q784 113 742.0 71.5Q700 30 633.0 2.0Q566 -26 471 -26ZM502 133Q602 133 671.0 172.0Q740 211 776.0 273.5Q812 336 812 404V559Q801 546 764.0 535.5Q727 525 679.5 517.0Q632 509 587.5 503.5Q543 498 517 495Q452 487 395.5 467.5Q339 448 305.0 410.5Q271 373 271 309Q271 251 301.0 212.0Q331 173 383.0 153.0Q435 133 502 133Z"/>
    <path transform="translate(744.95 350.00) scale(0.01562 -0.01562)" d="M140 -405 186 -249 205 -254Q260 -268 305.0 -261.5Q350 -255 386.0 -217.0Q422 -179 449 -99L481 -6L54 1118H251L489 455Q527 351 553.0 249.0Q579 147 608 51H542Q571 147 597.5 249.5Q624 352 661 455L901 1118H1097L606 -167Q572 -256 524.5 -313.5Q477 -371 414.0 -398.5Q351 -426 272 -426Q224 -426 189.0 -419.0Q154 -412 140 -405Z"/>
    <path transform="translate(771.94 350.00) scale(0.01562 -0.01562)" d="M678 1118V964H20V1118ZM240 0V1267Q240 1364 285.5 1429.0Q331 1494 404.0 1527.0Q477 1560 558 1560Q622 1560 664.0 1549.5Q706 1539 726 1530L676 1376Q662 1381 639.5 1387.0Q617 1393 579 1393Q496 1393 458.0 1350.5Q420 1308 420 1227V0Z"/>
    <path transform="translate(783.78 350.00) scale(0.01562 -0.01562)" d="M158 0V1118H338V0ZM249 1301Q198 1301 161.0 1336.0Q124 1371 124 1420Q124 1470 161.0 1504.5Q198 1539 249 1539Q301 1539 338.0 1504.5Q375 1470 375 1420Q375 1371 338.0 1336.0Q301 1301 249 1301Z"/>
    <path transform="translate(791.53 350.00) scale(0.01562 -0.01562)" d="M338 670V0H158V1118H331L332 847H307Q358 1002 452.5 1067.0Q547 1132 674 1132Q787 1132 872.0 1085.5Q957 1039 1004.5 945.5Q1052 852 1052 710V0H872V695Q872 824 804.5 897.0Q737 970 620 970Q540 970 476.0 935.0Q412 900 375.0 833.0Q338 766 338 670Z"/>
    <path transform="translate(810.44 350.00) scale(0.01562 -0.01562)" d="M471 -26Q365 -26 278.5 14.0Q192 54 141.0 131.0Q90 208 90 318Q90 414 128.0 474.0Q166 534 229.5 568.5Q293 603 370.0 620.0Q447 637 525 647Q625 660 688.0 667.0Q751 674 781.5 691.0Q812 708 812 749V755Q812 825 786.0 873.5Q760 922 708.0 948.0Q656 974 578 974Q498 974 441.0 949.0Q384 924 348.5 886.5Q313 849 295 810L122 867Q165 969 238.0 1026.5Q311 1084 399.0 1108.0Q487 1132 573 1132Q629 1132 700.5 1118.5Q772 1105 838.5 1065.0Q905 1025 948.5 946.5Q992 868 992 737V0H815V152H803Q784 113 742.0 71.5Q700 30 633.0 2.0Q566 -26 471 -26ZM502 133Q602 133 671.0 172.0Q740 211 776.0 273.5Q812 336 812 404V559Q801 546 764.0 535.5Q727 525 679.5 517.0Q632 509 587.5 503.5Q543 498 517 495Q452 487 395.5 467.5Q339 448 305.0 410.5Q271 373 271 309Q271 251 301.0 212.0Q331 173 383.0 153.0Q435 133 502 133Z"/>
    <path transform="translate(828.41 350.00) scale(0.01562 -0.01562)" d="M338 670V0H158V1118H331L332 847H307Q358 1002 452.5 1067.0Q547 1132 674 1132Q787 1132 872.0 1085.5Q957 1039 1004.5 945.5Q1052 852 1052 710V0H872V695Q872 824 804.5 897.0Q737 970 620 970Q540 970 476.0 935.0Q412 900 375.0 833.0Q338 766 338 670Z"/>
    <path transform="translate(847.31 350.00) scale(0.01562 -0.01562)" d="M613 -24Q461 -24 346.5 48.0Q232 120 168.0 250.0Q104 380 104 552Q104 727 168.0 857.5Q232 988 346.5 1060.0Q461 1132 613 1132Q694 1132 766.0 1111.0Q838 1090 897.5 1050.5Q957 1011 1000.0 953.5Q1043 896 1066 823L893 774Q881 817 856.0 853.0Q831 889 795.5 915.5Q760 942 714.0 956.5Q668 971 613 971Q501 971 429.0 912.5Q357 854 322.0 759.0Q287 664 287 552Q287 442 322.0 347.5Q357 253 429.0 195.0Q501 137 613 137Q669 137 716.0 152.0Q763 167 799.5 194.5Q836 222 861.0 260.0Q886 298 898 343L1070 294Q1048 219 1004.5 160.5Q961 102 901.0 60.5Q841 19 768.0 -2.5Q695 -24 613 -24Z"/>
    <path transform="translate(865.59 350.00) scale(0.01562 -0.01562)" d="M158 0V1118H338V0ZM249 1301Q198 1301 161.0 1336.0Q124 1371 124 1420Q124 1470 161.0 1504.5Q198 1539 249 1539Q301 1539 338.0 1504.5Q375 1470 375 1420Q375 1371 338.0 1336.0Q301 1301 249 1301Z"/>
    <path transform="translate(873.34 350.00) scale(0.01562 -0.01562)" d="M628 -24Q466 -24 348.5 48.0Q231 120 167.5 249.0Q104 378 104 550Q104 722 166.0 853.0Q228 984 341.5 1058.0Q455 1132 607 1132Q696 1132 782.5 1102.5Q869 1073 939.5 1007.5Q1010 942 1052.0 835.0Q1094 728 1094 573V498H226V650H997L913 594Q913 704 878.5 789.5Q844 875 776.0 923.5Q708 972 607 972Q506 972 434.0 922.5Q362 873 324.0 793.5Q286 714 286 623V522Q286 398 329.0 311.5Q372 225 449.5 180.5Q527 136 629 136Q695 136 749.0 155.0Q803 174 842.0 212.5Q881 251 902 308L1076 260Q1050 176 988.0 112.0Q926 48 834.5 12.0Q743 -24 628 -24Z"/>
    <path transform="translate(892.00 350.00) scale(0.01562 -0.01562)" d="M158 0V1118H332V946H344Q375 1031 454.5 1082.5Q534 1134 634 1134Q654 1134 681.5 1133.0Q709 1132 725 1131V950Q717 952 685.0 956.0Q653 960 617 960Q537 960 473.5 926.5Q410 893 374.0 834.5Q338 776 338 700V0Z"/>
    <path transform="translate(904.05 350.00) scale(0.01562 -0.01562)" d="M471 -26Q365 -26 278.5 14.0Q192 54 141.0 131.0Q90 208 90 318Q90 414 128.0 474.0Q166 534 229.5 568.5Q293 603 370.0 620.0Q447 637 525 647Q625 660 688.0 667.0Q751 674 781.5 691.0Q812 708 812 749V755Q812 825 786.0 873.5Q760 922 708.0 948.0Q656 974 578 974Q498 974 441.0 949.0Q384 924 348.5 886.5Q313 849 295 810L122 867Q165 969 238.0 1026.5Q311 1084 399.0 1108.0Q487 1132 573 1132Q629 1132 700.5 1118.5Q772 1105 838.5 1065.0Q905 1025 948.5 946.5Q992 868 992 737V0H815V152H803Q784 113 742.0 71.5Q700 30 633.0 2.0Q566 -26 471 -26ZM502 133Q602 133 671.0 172.0Q740 211 776.0 273.5Q812 336 812 404V559Q801 546 764.0 535.5Q727 525 679.5 517.0Q632 509 587.5 503.5Q543 498 517 495Q452 487 395.5 467.5Q339 448 305.0 410.5Q271 373 271 309Q271 251 301.0 212.0Q331 173 383.0 153.0Q435 133 502 133Z"/>
    <path transform="translate(931.02 350.00) scale(0.01562 -0.01562)" d="M577 -24Q438 -24 331.0 47.0Q224 118 164.0 248.0Q104 378 104 556Q104 733 164.5 862.5Q225 992 332.0 1062.0Q439 1132 578 1132Q687 1132 751.0 1096.0Q815 1060 849.5 1014.5Q884 969 902 939H916V1490H1096V0H922V173H902Q884 142 848.5 95.5Q813 49 748.5 12.5Q684 -24 577 -24ZM604 137Q706 137 776.0 190.5Q846 244 882.0 339.0Q918 434 918 558Q918 682 882.5 774.5Q847 867 777.0 919.0Q707 971 604 971Q498 971 427.5 916.0Q357 861 322.0 767.5Q287 674 287 558Q287 441 322.5 345.5Q358 250 429.0 193.5Q500 137 604 137Z"/>
    <path transform="translate(950.61 350.00) scale(0.01562 -0.01562)" d="M628 -24Q466 -24 348.5 48.0Q231 120 167.5 249.0Q104 378 104 550Q104 722 166.0 853.0Q228 984 341.5 1058.0Q455 1132 607 1132Q696 1132 782.5 1102.5Q869 1073 939.5 1007.5Q1010 942 1052.0 835.0Q1094 728 1094 573V498H226V650H997L913 594Q913 704 878.5 789.5Q844 875 776.0 923.5Q708 972 607 972Q506 972 434.0 922.5Q362 873 324.0 793.5Q286 714 286 623V522Q286 398 329.0 311.5Q372 225 449.5 180.5Q527 136 629 136Q695 136 749.0 155.0Q803 174 842.0 212.5Q881 251 902 308L1076 260Q1050 176 988.0 112.0Q926 48 834.5 12.0Q743 -24 628 -24Z"/>
    <path transform="translate(978.27 350.00) scale(0.01562 -0.01562)" d="M180 0V1490H708Q864 1490 965.5 1436.5Q1067 1383 1116.5 1293.5Q1166 1204 1166 1095Q1166 999 1132.0 936.5Q1098 874 1042.5 837.0Q987 800 922 782V768Q992 764 1061.5 720.0Q1131 676 1177.5 595.0Q1224 514 1224 397Q1224 285 1172.5 195.0Q1121 105 1011.0 52.5Q901 0 725 0ZM370 168H720Q894 168 967.5 235.0Q1041 302 1041 399Q1041 474 1003.0 537.0Q965 600 895.5 638.0Q826 676 730 676H370ZM370 836H698Q778 836 843.0 867.5Q908 899 946.0 956.5Q984 1014 984 1091Q984 1188 916.5 1255.0Q849 1322 704 1322H370Z"/>
    <path transform="translate(999.20 350.00) scale(0.01562 -0.01562)" d="M613 -24Q461 -24 346.5 48.0Q232 120 168.0 250.0Q104 380 104 552Q104 727 168.0 857.5Q232 988 346.5 1060.0Q461 1132 613 1132Q766 1132 881.0 1060.0Q996 988 1060.0 857.5Q1124 727 1124 552Q1124 380 1060.0 250.0Q996 120 881.0 48.0Q766 -24 613 -24ZM613 137Q726 137 799.0 195.0Q872 253 907.0 347.5Q942 442 942 552Q942 663 907.0 758.5Q872 854 799.0 912.5Q726 971 613 971Q501 971 429.0 912.5Q357 854 322.0 759.0Q287 664 287 552Q287 442 322.0 347.5Q357 253 429.0 195.0Q501 137 613 137Z"/>
    <path transform="translate(1018.39 350.00) scale(0.01562 -0.01562)" d="M338 1490V0H158V1490Z"/>
    <path transform="translate(1026.14 350.00) scale(0.01562 -0.01562)" d="M158 0V1118H338V0ZM249 1301Q198 1301 161.0 1336.0Q124 1371 124 1420Q124 1470 161.0 1504.5Q198 1539 249 1539Q301 1539 338.0 1504.5Q375 1470 375 1420Q375 1371 338.0 1336.0Q301 1301 249 1301Z"/>
    <path transform="translate(1033.89 350.00) scale(0.01562 -0.01562)" d="M481 0 54 1118H251L489 455Q527 352 553.5 249.5Q580 147 609 51H543Q572 147 598.5 249.5Q625 352 662 455L900 1118H1097L670 0Z"/>
    <path transform="translate(1051.88 350.00) scale(0.01562 -0.01562)" d="M158 0V1118H338V0ZM249 1301Q198 1301 161.0 1336.0Q124 1371 124 1420Q124 1470 161.0 1504.5Q198 1539 249 1539Q301 1539 338.0 1504.5Q375 1470 375 1420Q375 1371 338.0 1336.0Q301 1301 249 1301Z"/>
    <path transform="translate(1059.62 350.00) scale(0.01562 -0.01562)" d="M471 -26Q365 -26 278.5 14.0Q192 54 141.0 131.0Q90 208 90 318Q90 414 128.0 474.0Q166 534 229.5 568.5Q293 603 370.0 620.0Q447 637 525 647Q625 660 688.0 667.0Q751 674 781.5 691.0Q812 708 812 749V755Q812 825 786.0 873.5Q760 922 708.0 948.0Q656 974 578 974Q498 974 441.0 949.0Q384 924 348.5 886.5Q313 849 295 810L122 867Q165 969 238.0 1026.5Q311 1084 399.0 1108.0Q487 1132 573 1132Q629 1132 700.5 1118.5Q772 1105 838.5 1065.0Q905 1025 948.5 946.5Q992 868 992 737V0H815V152H803Q784 113 742.0 71.5Q700 30 633.0 2.0Q566 -26 471 -26ZM502 133Q602 133 671.0 172.0Q740 211 776.0 273.5Q812 336 812 404V559Q801 546 764.0 535.5Q727 525 679.5 517.0Q632 509 587.5 503.5Q543 498 517 495Q452 487 395.5 467.5Q339 448 305.0 410.5Q271 373 271 309Q271 251 301.0 212.0Q331 173 383.0 153.0Q435 133 502 133Z"/>
  </g>
  <g fill="#6B6256">
    <path transform="translate(380.00 392.00) scale(0.01074 -0.01074)" d="M180 0V1490H404L1010 537Q1034 500 1068.0 442.0Q1102 384 1141.5 311.0Q1181 238 1219 155H1192Q1183 241 1179.0 319.5Q1175 398 1174.0 464.0Q1173 530 1173 576V1490H1363V0H1137L597 848Q560 907 522.5 969.5Q485 1032 437.0 1117.5Q389 1203 318 1329H353Q358 1218 362.0 1124.0Q366 1030 368.5 960.0Q371 890 371 850V0Z"/>
    <path transform="translate(396.58 392.00) scale(0.01074 -0.01074)" d="M613 -24Q461 -24 346.5 48.0Q232 120 168.0 250.0Q104 380 104 552Q104 727 168.0 857.5Q232 988 346.5 1060.0Q461 1132 613 1132Q766 1132 881.0 1060.0Q996 988 1060.0 857.5Q1124 727 1124 552Q1124 380 1060.0 250.0Q996 120 881.0 48.0Q766 -24 613 -24ZM613 137Q726 137 799.0 195.0Q872 253 907.0 347.5Q942 442 942 552Q942 663 907.0 758.5Q872 854 799.0 912.5Q726 971 613 971Q501 971 429.0 912.5Q357 854 322.0 759.0Q287 664 287 552Q287 442 322.0 347.5Q357 253 429.0 195.0Q501 137 613 137Z"/>
    <path transform="translate(409.77 392.00) scale(0.01074 -0.01074)" d="M598 1118V964H20V1118ZM188 1384H368V290Q368 215 398.5 180.5Q429 146 500 146Q517 146 543.5 150.0Q570 154 592 158L629 6Q601 -4 565.5 -9.0Q530 -14 495 -14Q350 -14 269.0 62.5Q188 139 188 276Z"/>
    <path transform="translate(416.96 392.00) scale(0.01074 -0.01074)" d="M158 0V1118H338V0ZM249 1301Q198 1301 161.0 1336.0Q124 1371 124 1420Q124 1470 161.0 1504.5Q198 1539 249 1539Q301 1539 338.0 1504.5Q375 1470 375 1420Q375 1371 338.0 1336.0Q301 1301 249 1301Z"/>
    <path transform="translate(422.29 392.00) scale(0.01074 -0.01074)" d="M613 -24Q461 -24 346.5 48.0Q232 120 168.0 250.0Q104 380 104 552Q104 727 168.0 857.5Q232 988 346.5 1060.0Q461 1132 613 1132Q694 1132 766.0 1111.0Q838 1090 897.5 1050.5Q957 1011 1000.0 953.5Q1043 896 1066 823L893 774Q881 817 856.0 853.0Q831 889 795.5 915.5Q760 942 714.0 956.5Q668 971 613 971Q501 971 429.0 912.5Q357 854 322.0 759.0Q287 664 287 552Q287 442 322.0 347.5Q357 253 429.0 195.0Q501 137 613 137Q669 137 716.0 152.0Q763 167 799.5 194.5Q836 222 861.0 260.0Q886 298 898 343L1070 294Q1048 219 1004.5 160.5Q961 102 901.0 60.5Q841 19 768.0 -2.5Q695 -24 613 -24Z"/>
    <path transform="translate(434.86 392.00) scale(0.01074 -0.01074)" d="M158 0V1118H338V0ZM249 1301Q198 1301 161.0 1336.0Q124 1371 124 1420Q124 1470 161.0 1504.5Q198 1539 249 1539Q301 1539 338.0 1504.5Q375 1470 375 1420Q375 1371 338.0 1336.0Q301 1301 249 1301Z"/>
    <path transform="translate(440.19 392.00) scale(0.01074 -0.01074)" d="M471 -26Q365 -26 278.5 14.0Q192 54 141.0 131.0Q90 208 90 318Q90 414 128.0 474.0Q166 534 229.5 568.5Q293 603 370.0 620.0Q447 637 525 647Q625 660 688.0 667.0Q751 674 781.5 691.0Q812 708 812 749V755Q812 825 786.0 873.5Q760 922 708.0 948.0Q656 974 578 974Q498 974 441.0 949.0Q384 924 348.5 886.5Q313 849 295 810L122 867Q165 969 238.0 1026.5Q311 1084 399.0 1108.0Q487 1132 573 1132Q629 1132 700.5 1118.5Q772 1105 838.5 1065.0Q905 1025 948.5 946.5Q992 868 992 737V0H815V152H803Q784 113 742.0 71.5Q700 30 633.0 2.0Q566 -26 471 -26ZM502 133Q602 133 671.0 172.0Q740 211 776.0 273.5Q812 336 812 404V559Q801 546 764.0 535.5Q727 525 679.5 517.0Q632 509 587.5 503.5Q543 498 517 495Q452 487 395.5 467.5Q339 448 305.0 410.5Q271 373 271 309Q271 251 301.0 212.0Q331 173 383.0 153.0Q435 133 502 133Z"/>
    <path transform="translate(452.54 392.00) scale(0.01074 -0.01074)" d="M538 -24Q423 -24 333.5 9.5Q244 43 186.0 109.0Q128 175 108 271L279 312Q303 220 369.5 177.0Q436 134 536 134Q653 134 722.5 184.0Q792 234 792 303Q792 361 751.5 399.5Q711 438 628 457L442 501Q290 537 216.0 612.5Q142 688 142 806Q142 902 196.0 975.5Q250 1049 343.5 1090.5Q437 1132 556 1132Q671 1132 751.5 1097.5Q832 1063 882.5 1002.5Q933 942 958 863L795 821Q772 881 718.5 930.0Q665 979 557 979Q457 979 390.5 933.0Q324 887 324 817Q324 755 369.0 717.5Q414 680 512 657L681 617Q833 581 906.0 505.5Q979 430 979 315Q979 217 923.5 140.5Q868 64 768.5 20.0Q669 -24 538 -24Z"/>
    <path transform="translate(470.34 392.00) scale(0.01074 -0.01074)" d="M628 -24Q466 -24 348.5 48.0Q231 120 167.5 249.0Q104 378 104 550Q104 722 166.0 853.0Q228 984 341.5 1058.0Q455 1132 607 1132Q696 1132 782.5 1102.5Q869 1073 939.5 1007.5Q1010 942 1052.0 835.0Q1094 728 1094 573V498H226V650H997L913 594Q913 704 878.5 789.5Q844 875 776.0 923.5Q708 972 607 972Q506 972 434.0 922.5Q362 873 324.0 793.5Q286 714 286 623V522Q286 398 329.0 311.5Q372 225 449.5 180.5Q527 136 629 136Q695 136 749.0 155.0Q803 174 842.0 212.5Q881 251 902 308L1076 260Q1050 176 988.0 112.0Q926 48 834.5 12.0Q743 -24 628 -24Z"/>
    <path transform="translate(483.17 392.00) scale(0.01074 -0.01074)" d="M613 -24Q461 -24 346.5 48.0Q232 120 168.0 250.0Q104 380 104 552Q104 727 168.0 857.5Q232 988 346.5 1060.0Q461 1132 613 1132Q694 1132 766.0 1111.0Q838 1090 897.5 1050.5Q957 1011 1000.0 953.5Q1043 896 1066 823L893 774Q881 817 856.0 853.0Q831 889 795.5 915.5Q760 942 714.0 956.5Q668 971 613 971Q501 971 429.0 912.5Q357 854 322.0 759.0Q287 664 287 552Q287 442 322.0 347.5Q357 253 429.0 195.0Q501 137 613 137Q669 137 716.0 152.0Q763 167 799.5 194.5Q836 222 861.0 260.0Q886 298 898 343L1070 294Q1048 219 1004.5 160.5Q961 102 901.0 60.5Q841 19 768.0 -2.5Q695 -24 613 -24Z"/>
    <path transform="translate(495.74 392.00) scale(0.01074 -0.01074)" d="M613 -24Q461 -24 346.5 48.0Q232 120 168.0 250.0Q104 380 104 552Q104 727 168.0 857.5Q232 988 346.5 1060.0Q461 1132 613 1132Q766 1132 881.0 1060.0Q996 988 1060.0 857.5Q1124 727 1124 552Q1124 380 1060.0 250.0Q996 120 881.0 48.0Q766 -24 613 -24ZM613 137Q726 137 799.0 195.0Q872 253 907.0 347.5Q942 442 942 552Q942 663 907.0 758.5Q872 854 799.0 912.5Q726 971 613 971Q501 971 429.0 912.5Q357 854 322.0 759.0Q287 664 287 552Q287 442 322.0 347.5Q357 253 429.0 195.0Q501 137 613 137Z"/>
    <path transform="translate(508.93 392.00) scale(0.01074 -0.01074)" d="M338 670V0H158V1118H331L332 847H307Q358 1002 452.5 1067.0Q547 1132 674 1132Q787 1132 872.0 1085.5Q957 1039 1004.5 945.5Q1052 852 1052 710V0H872V695Q872 824 804.5 897.0Q737 970 620 970Q540 970 476.0 935.0Q412 900 375.0 833.0Q338 766 338 670Z"/>
    <path transform="translate(521.93 392.00) scale(0.01074 -0.01074)" d="M613 -24Q461 -24 346.5 48.0Q232 120 168.0 250.0Q104 380 104 552Q104 727 168.0 857.5Q232 988 346.5 1060.0Q461 1132 613 1132Q766 1132 881.0 1060.0Q996 988 1060.0 857.5Q1124 727 1124 552Q1124 380 1060.0 250.0Q996 120 881.0 48.0Q766 -24 613 -24ZM613 137Q726 137 799.0 195.0Q872 253 907.0 347.5Q942 442 942 552Q942 663 907.0 758.5Q872 854 799.0 912.5Q726 971 613 971Q501 971 429.0 912.5Q357 854 322.0 759.0Q287 664 287 552Q287 442 322.0 347.5Q357 253 429.0 195.0Q501 137 613 137ZM534 1264 674 1558H875L681 1264Z"/>
    <path transform="translate(535.12 392.00) scale(0.01074 -0.01074)" d="M158 0V1118H333L334 868H320Q343 959 392.5 1018.5Q442 1078 508.5 1108.0Q575 1138 647 1138Q769 1138 844.5 1063.0Q920 988 942 866H918Q938 950 991.0 1011.0Q1044 1072 1119.5 1105.0Q1195 1138 1284 1138Q1381 1138 1461.0 1096.0Q1541 1054 1588.5 969.0Q1636 884 1636 754V0H1456V749Q1456 870 1388.0 922.0Q1320 974 1230 974Q1155 974 1100.5 942.5Q1046 911 1016.5 856.0Q987 801 987 730V0H807V767Q807 860 745.0 917.0Q683 974 588 974Q523 974 465.5 943.5Q408 913 373.0 853.0Q338 793 338 704V0Z"/>
    <path transform="translate(554.39 392.00) scale(0.01074 -0.01074)" d="M158 0V1118H338V0ZM249 1301Q198 1301 161.0 1336.0Q124 1371 124 1420Q124 1470 161.0 1504.5Q198 1539 249 1539Q301 1539 338.0 1504.5Q375 1470 375 1420Q375 1371 338.0 1336.0Q301 1301 249 1301Z"/>
    <path transform="translate(559.72 392.00) scale(0.01074 -0.01074)" d="M613 -24Q461 -24 346.5 48.0Q232 120 168.0 250.0Q104 380 104 552Q104 727 168.0 857.5Q232 988 346.5 1060.0Q461 1132 613 1132Q694 1132 766.0 1111.0Q838 1090 897.5 1050.5Q957 1011 1000.0 953.5Q1043 896 1066 823L893 774Q881 817 856.0 853.0Q831 889 795.5 915.5Q760 942 714.0 956.5Q668 971 613 971Q501 971 429.0 912.5Q357 854 322.0 759.0Q287 664 287 552Q287 442 322.0 347.5Q357 253 429.0 195.0Q501 137 613 137Q669 137 716.0 152.0Q763 167 799.5 194.5Q836 222 861.0 260.0Q886 298 898 343L1070 294Q1048 219 1004.5 160.5Q961 102 901.0 60.5Q841 19 768.0 -2.5Q695 -24 613 -24Z"/>
    <path transform="translate(572.29 392.00) scale(0.01074 -0.01074)" d="M471 -26Q365 -26 278.5 14.0Q192 54 141.0 131.0Q90 208 90 318Q90 414 128.0 474.0Q166 534 229.5 568.5Q293 603 370.0 620.0Q447 637 525 647Q625 660 688.0 667.0Q751 674 781.5 691.0Q812 708 812 749V755Q812 825 786.0 873.5Q760 922 708.0 948.0Q656 974 578 974Q498 974 441.0 949.0Q384 924 348.5 886.5Q313 849 295 810L122 867Q165 969 238.0 1026.5Q311 1084 399.0 1108.0Q487 1132 573 1132Q629 1132 700.5 1118.5Q772 1105 838.5 1065.0Q905 1025 948.5 946.5Q992 868 992 737V0H815V152H803Q784 113 742.0 71.5Q700 30 633.0 2.0Q566 -26 471 -26ZM502 133Q602 133 671.0 172.0Q740 211 776.0 273.5Q812 336 812 404V559Q801 546 764.0 535.5Q727 525 679.5 517.0Q632 509 587.5 503.5Q543 498 517 495Q452 487 395.5 467.5Q339 448 305.0 410.5Q271 373 271 309Q271 251 301.0 212.0Q331 173 383.0 153.0Q435 133 502 133Z"/>
    <path transform="translate(584.64 392.00) scale(0.01074 -0.01074)" d="M538 -24Q423 -24 333.5 9.5Q244 43 186.0 109.0Q128 175 108 271L279 312Q303 220 369.5 177.0Q436 134 536 134Q653 134 722.5 184.0Q792 234 792 303Q792 361 751.5 399.5Q711 438 628 457L442 501Q290 537 216.0 612.5Q142 688 142 806Q142 902 196.0 975.5Q250 1049 343.5 1090.5Q437 1132 556 1132Q671 1132 751.5 1097.5Q832 1063 882.5 1002.5Q933 942 958 863L795 821Q772 881 718.5 930.0Q665 979 557 979Q457 979 390.5 933.0Q324 887 324 817Q324 755 369.0 717.5Q414 680 512 657L681 617Q833 581 906.0 505.5Q979 430 979 315Q979 217 923.5 140.5Q868 64 768.5 20.0Q669 -24 538 -24Z"/>
    <path transform="translate(602.44 392.00) scale(0.01074 -0.01074)" d="M295 573Q239 573 199.5 612.5Q160 652 160 708Q160 764 199.5 803.5Q239 843 295 843Q351 843 390.5 803.5Q430 764 430 708Q430 652 390.5 612.5Q351 573 295 573Z"/>
    <path transform="translate(614.96 392.00) scale(0.01074 -0.01074)" d="M645 0H285V168H633Q815 168 934.5 237.5Q1054 307 1113.0 437.0Q1172 567 1172 748Q1172 927 1113.5 1055.5Q1055 1184 939.5 1253.0Q824 1322 651 1322H277V1490H664Q882 1490 1036.5 1401.0Q1191 1312 1273.5 1145.5Q1356 979 1356 748Q1356 515 1273.0 347.5Q1190 180 1031.0 90.0Q872 0 645 0ZM370 1490V0H180V1490Z"/>
    <path transform="translate(630.84 392.00) scale(0.01074 -0.01074)" d="M471 -26Q365 -26 278.5 14.0Q192 54 141.0 131.0Q90 208 90 318Q90 414 128.0 474.0Q166 534 229.5 568.5Q293 603 370.0 620.0Q447 637 525 647Q625 660 688.0 667.0Q751 674 781.5 691.0Q812 708 812 749V755Q812 825 786.0 873.5Q760 922 708.0 948.0Q656 974 578 974Q498 974 441.0 949.0Q384 924 348.5 886.5Q313 849 295 810L122 867Q165 969 238.0 1026.5Q311 1084 399.0 1108.0Q487 1132 573 1132Q629 1132 700.5 1118.5Q772 1105 838.5 1065.0Q905 1025 948.5 946.5Q992 868 992 737V0H815V152H803Q784 113 742.0 71.5Q700 30 633.0 2.0Q566 -26 471 -26ZM502 133Q602 133 671.0 172.0Q740 211 776.0 273.5Q812 336 812 404V559Q801 546 764.0 535.5Q727 525 679.5 517.0Q632 509 587.5 503.5Q543 498 517 495Q452 487 395.5 467.5Q339 448 305.0 410.5Q271 373 271 309Q271 251 301.0 212.0Q331 173 383.0 153.0Q435 133 502 133Z"/>
    <path transform="translate(643.19 392.00) scale(0.01074 -0.01074)" d="M598 1118V964H20V1118ZM188 1384H368V290Q368 215 398.5 180.5Q429 146 500 146Q517 146 543.5 150.0Q570 154 592 158L629 6Q601 -4 565.5 -9.0Q530 -14 495 -14Q350 -14 269.0 62.5Q188 139 188 276Z"/>
    <path transform="translate(650.39 392.00) scale(0.01074 -0.01074)" d="M613 -24Q461 -24 346.5 48.0Q232 120 168.0 250.0Q104 380 104 552Q104 727 168.0 857.5Q232 988 346.5 1060.0Q461 1132 613 1132Q766 1132 881.0 1060.0Q996 988 1060.0 857.5Q1124 727 1124 552Q1124 380 1060.0 250.0Q996 120 881.0 48.0Q766 -24 613 -24ZM613 137Q726 137 799.0 195.0Q872 253 907.0 347.5Q942 442 942 552Q942 663 907.0 758.5Q872 854 799.0 912.5Q726 971 613 971Q501 971 429.0 912.5Q357 854 322.0 759.0Q287 664 287 552Q287 442 322.0 347.5Q357 253 429.0 195.0Q501 137 613 137Z"/>
    <path transform="translate(663.58 392.00) scale(0.01074 -0.01074)" d="M538 -24Q423 -24 333.5 9.5Q244 43 186.0 109.0Q128 175 108 271L279 312Q303 220 369.5 177.0Q436 134 536 134Q653 134 722.5 184.0Q792 234 792 303Q792 361 751.5 399.5Q711 438 628 457L442 501Q290 537 216.0 612.5Q142 688 142 806Q142 902 196.0 975.5Q250 1049 343.5 1090.5Q437 1132 556 1132Q671 1132 751.5 1097.5Q832 1063 882.5 1002.5Q933 942 958 863L795 821Q772 881 718.5 930.0Q665 979 557 979Q457 979 390.5 933.0Q324 887 324 817Q324 755 369.0 717.5Q414 680 512 657L681 617Q833 581 906.0 505.5Q979 430 979 315Q979 217 923.5 140.5Q868 64 768.5 20.0Q669 -24 538 -24Z"/>
    <path transform="translate(681.38 392.00) scale(0.01074 -0.01074)" d="M158 0V1118H333L334 868H320Q343 959 392.5 1018.5Q442 1078 508.5 1108.0Q575 1138 647 1138Q769 1138 844.5 1063.0Q920 988 942 866H918Q938 950 991.0 1011.0Q1044 1072 1119.5 1105.0Q1195 1138 1284 1138Q1381 1138 1461.0 1096.0Q1541 1054 1588.5 969.0Q1636 884 1636 754V0H1456V749Q1456 870 1388.0 922.0Q1320 974 1230 974Q1155 974 1100.5 942.5Q1046 911 1016.5 856.0Q987 801 987 730V0H807V767Q807 860 745.0 917.0Q683 974 588 974Q523 974 465.5 943.5Q408 913 373.0 853.0Q338 793 338 704V0Z"/>
    <path transform="translate(700.65 392.00) scale(0.01074 -0.01074)" d="M471 -26Q365 -26 278.5 14.0Q192 54 141.0 131.0Q90 208 90 318Q90 414 128.0 474.0Q166 534 229.5 568.5Q293 603 370.0 620.0Q447 637 525 647Q625 660 688.0 667.0Q751 674 781.5 691.0Q812 708 812 749V755Q812 825 786.0 873.5Q760 922 708.0 948.0Q656 974 578 974Q498 974 441.0 949.0Q384 924 348.5 886.5Q313 849 295 810L122 867Q165 969 238.0 1026.5Q311 1084 399.0 1108.0Q487 1132 573 1132Q629 1132 700.5 1118.5Q772 1105 838.5 1065.0Q905 1025 948.5 946.5Q992 868 992 737V0H815V152H803Q784 113 742.0 71.5Q700 30 633.0 2.0Q566 -26 471 -26ZM502 133Q602 133 671.0 172.0Q740 211 776.0 273.5Q812 336 812 404V559Q801 546 764.0 535.5Q727 525 679.5 517.0Q632 509 587.5 503.5Q543 498 517 495Q452 487 395.5 467.5Q339 448 305.0 410.5Q271 373 271 309Q271 251 301.0 212.0Q331 173 383.0 153.0Q435 133 502 133Z"/>
    <path transform="translate(713.01 392.00) scale(0.01074 -0.01074)" d="M613 -24Q461 -24 346.5 48.0Q232 120 168.0 250.0Q104 380 104 552Q104 727 168.0 857.5Q232 988 346.5 1060.0Q461 1132 613 1132Q694 1132 766.0 1111.0Q838 1090 897.5 1050.5Q957 1011 1000.0 953.5Q1043 896 1066 823L893 774Q881 817 856.0 853.0Q831 889 795.5 915.5Q760 942 714.0 956.5Q668 971 613 971Q501 971 429.0 912.5Q357 854 322.0 759.0Q287 664 287 552Q287 442 322.0 347.5Q357 253 429.0 195.0Q501 137 613 137Q669 137 716.0 152.0Q763 167 799.5 194.5Q836 222 861.0 260.0Q886 298 898 343L1070 294Q1048 219 1004.5 160.5Q961 102 901.0 60.5Q841 19 768.0 -2.5Q695 -24 613 -24Z"/>
    <path transform="translate(725.58 392.00) scale(0.01074 -0.01074)" d="M158 0V1118H332V946H344Q375 1031 454.5 1082.5Q534 1134 634 1134Q654 1134 681.5 1133.0Q709 1132 725 1131V950Q717 952 685.0 956.0Q653 960 617 960Q537 960 473.5 926.5Q410 893 374.0 834.5Q338 776 338 700V0Z"/>
    <path transform="translate(733.86 392.00) scale(0.01074 -0.01074)" d="M613 -24Q461 -24 346.5 48.0Q232 120 168.0 250.0Q104 380 104 552Q104 727 168.0 857.5Q232 988 346.5 1060.0Q461 1132 613 1132Q766 1132 881.0 1060.0Q996 988 1060.0 857.5Q1124 727 1124 552Q1124 380 1060.0 250.0Q996 120 881.0 48.0Q766 -24 613 -24ZM613 137Q726 137 799.0 195.0Q872 253 907.0 347.5Q942 442 942 552Q942 663 907.0 758.5Q872 854 799.0 912.5Q726 971 613 971Q501 971 429.0 912.5Q357 854 322.0 759.0Q287 664 287 552Q287 442 322.0 347.5Q357 253 429.0 195.0Q501 137 613 137Z"/>
    <path transform="translate(753.24 392.00) scale(0.01074 -0.01074)" d="M295 573Q239 573 199.5 612.5Q160 652 160 708Q160 764 199.5 803.5Q239 843 295 843Q351 843 390.5 803.5Q430 764 430 708Q430 652 390.5 612.5Q351 573 295 573Z"/>
    <path transform="translate(765.76 392.00) scale(0.01074 -0.01074)" d="M52 0 593 1490H813L1361 0H1161L845 884Q816 966 777.5 1088.5Q739 1211 684 1401H720Q666 1209 626.5 1084.5Q587 960 561 884L254 0ZM324 416V582H1089V416Z"/>
    <path transform="translate(780.94 392.00) scale(0.01074 -0.01074)" d="M338 670V0H158V1118H331L332 847H307Q358 1002 452.5 1067.0Q547 1132 674 1132Q787 1132 872.0 1085.5Q957 1039 1004.5 945.5Q1052 852 1052 710V0H872V695Q872 824 804.5 897.0Q737 970 620 970Q540 970 476.0 935.0Q412 900 375.0 833.0Q338 766 338 670Z"/>
    <path transform="translate(793.94 392.00) scale(0.01074 -0.01074)" d="M471 -26Q365 -26 278.5 14.0Q192 54 141.0 131.0Q90 208 90 318Q90 414 128.0 474.0Q166 534 229.5 568.5Q293 603 370.0 620.0Q447 637 525 647Q625 660 688.0 667.0Q751 674 781.5 691.0Q812 708 812 749V755Q812 825 786.0 873.5Q760 922 708.0 948.0Q656 974 578 974Q498 974 441.0 949.0Q384 924 348.5 886.5Q313 849 295 810L122 867Q165 969 238.0 1026.5Q311 1084 399.0 1108.0Q487 1132 573 1132Q629 1132 700.5 1118.5Q772 1105 838.5 1065.0Q905 1025 948.5 946.5Q992 868 992 737V0H815V152H803Q784 113 742.0 71.5Q700 30 633.0 2.0Q566 -26 471 -26ZM502 133Q602 133 671.0 172.0Q740 211 776.0 273.5Q812 336 812 404V559Q801 546 764.0 535.5Q727 525 679.5 517.0Q632 509 587.5 503.5Q543 498 517 495Q452 487 395.5 467.5Q339 448 305.0 410.5Q271 373 271 309Q271 251 301.0 212.0Q331 173 383.0 153.0Q435 133 502 133ZM479 1264 619 1558H820L626 1264Z"/>
    <path transform="translate(806.29 392.00) scale(0.01074 -0.01074)" d="M338 1490V0H158V1490Z"/>
    <path transform="translate(811.62 392.00) scale(0.01074 -0.01074)" d="M158 0V1118H338V0ZM249 1301Q198 1301 161.0 1336.0Q124 1371 124 1420Q124 1470 161.0 1504.5Q198 1539 249 1539Q301 1539 338.0 1504.5Q375 1470 375 1420Q375 1371 338.0 1336.0Q301 1301 249 1301Z"/>
    <path transform="translate(816.95 392.00) scale(0.01074 -0.01074)" d="M538 -24Q423 -24 333.5 9.5Q244 43 186.0 109.0Q128 175 108 271L279 312Q303 220 369.5 177.0Q436 134 536 134Q653 134 722.5 184.0Q792 234 792 303Q792 361 751.5 399.5Q711 438 628 457L442 501Q290 537 216.0 612.5Q142 688 142 806Q142 902 196.0 975.5Q250 1049 343.5 1090.5Q437 1132 556 1132Q671 1132 751.5 1097.5Q832 1063 882.5 1002.5Q933 942 958 863L795 821Q772 881 718.5 930.0Q665 979 557 979Q457 979 390.5 933.0Q324 887 324 817Q324 755 369.0 717.5Q414 680 512 657L681 617Q833 581 906.0 505.5Q979 430 979 315Q979 217 923.5 140.5Q868 64 768.5 20.0Q669 -24 538 -24Z"/>
    <path transform="translate(828.56 392.00) scale(0.01074 -0.01074)" d="M158 0V1118H338V0ZM249 1301Q198 1301 161.0 1336.0Q124 1371 124 1420Q124 1470 161.0 1504.5Q198 1539 249 1539Q301 1539 338.0 1504.5Q375 1470 375 1420Q375 1371 338.0 1336.0Q301 1301 249 1301Z"/>
    <path transform="translate(833.89 392.00) scale(0.01074 -0.01074)" d="M538 -24Q423 -24 333.5 9.5Q244 43 186.0 109.0Q128 175 108 271L279 312Q303 220 369.5 177.0Q436 134 536 134Q653 134 722.5 184.0Q792 234 792 303Q792 361 751.5 399.5Q711 438 628 457L442 501Q290 537 216.0 612.5Q142 688 142 806Q142 902 196.0 975.5Q250 1049 343.5 1090.5Q437 1132 556 1132Q671 1132 751.5 1097.5Q832 1063 882.5 1002.5Q933 942 958 863L795 821Q772 881 718.5 930.0Q665 979 557 979Q457 979 390.5 933.0Q324 887 324 817Q324 755 369.0 717.5Q414 680 512 657L681 617Q833 581 906.0 505.5Q979 430 979 315Q979 217 923.5 140.5Q868 64 768.5 20.0Q669 -24 538 -24Z"/>
    <path transform="translate(851.69 392.00) scale(0.01074 -0.01074)" d="M678 1118V964H20V1118ZM240 0V1267Q240 1364 285.5 1429.0Q331 1494 404.0 1527.0Q477 1560 558 1560Q622 1560 664.0 1549.5Q706 1539 726 1530L676 1376Q662 1381 639.5 1387.0Q617 1393 579 1393Q496 1393 458.0 1350.5Q420 1308 420 1227V0Z"/>
    <path transform="translate(859.83 392.00) scale(0.01074 -0.01074)" d="M158 0V1118H338V0ZM249 1301Q198 1301 161.0 1336.0Q124 1371 124 1420Q124 1470 161.0 1504.5Q198 1539 249 1539Q301 1539 338.0 1504.5Q375 1470 375 1420Q375 1371 338.0 1336.0Q301 1301 249 1301Z"/>
    <path transform="translate(865.16 392.00) scale(0.01074 -0.01074)" d="M338 670V0H158V1118H331L332 847H307Q358 1002 452.5 1067.0Q547 1132 674 1132Q787 1132 872.0 1085.5Q957 1039 1004.5 945.5Q1052 852 1052 710V0H872V695Q872 824 804.5 897.0Q737 970 620 970Q540 970 476.0 935.0Q412 900 375.0 833.0Q338 766 338 670Z"/>
    <path transform="translate(878.16 392.00) scale(0.01074 -0.01074)" d="M471 -26Q365 -26 278.5 14.0Q192 54 141.0 131.0Q90 208 90 318Q90 414 128.0 474.0Q166 534 229.5 568.5Q293 603 370.0 620.0Q447 637 525 647Q625 660 688.0 667.0Q751 674 781.5 691.0Q812 708 812 749V755Q812 825 786.0 873.5Q760 922 708.0 948.0Q656 974 578 974Q498 974 441.0 949.0Q384 924 348.5 886.5Q313 849 295 810L122 867Q165 969 238.0 1026.5Q311 1084 399.0 1108.0Q487 1132 573 1132Q629 1132 700.5 1118.5Q772 1105 838.5 1065.0Q905 1025 948.5 946.5Q992 868 992 737V0H815V152H803Q784 113 742.0 71.5Q700 30 633.0 2.0Q566 -26 471 -26ZM502 133Q602 133 671.0 172.0Q740 211 776.0 273.5Q812 336 812 404V559Q801 546 764.0 535.5Q727 525 679.5 517.0Q632 509 587.5 503.5Q543 498 517 495Q452 487 395.5 467.5Q339 448 305.0 410.5Q271 373 271 309Q271 251 301.0 212.0Q331 173 383.0 153.0Q435 133 502 133Z"/>
    <path transform="translate(890.51 392.00) scale(0.01074 -0.01074)" d="M338 670V0H158V1118H331L332 847H307Q358 1002 452.5 1067.0Q547 1132 674 1132Q787 1132 872.0 1085.5Q957 1039 1004.5 945.5Q1052 852 1052 710V0H872V695Q872 824 804.5 897.0Q737 970 620 970Q540 970 476.0 935.0Q412 900 375.0 833.0Q338 766 338 670Z"/>
    <path transform="translate(903.51 392.00) scale(0.01074 -0.01074)" d="M613 -24Q461 -24 346.5 48.0Q232 120 168.0 250.0Q104 380 104 552Q104 727 168.0 857.5Q232 988 346.5 1060.0Q461 1132 613 1132Q694 1132 766.0 1111.0Q838 1090 897.5 1050.5Q957 1011 1000.0 953.5Q1043 896 1066 823L893 774Q881 817 856.0 853.0Q831 889 795.5 915.5Q760 942 714.0 956.5Q668 971 613 971Q501 971 429.0 912.5Q357 854 322.0 759.0Q287 664 287 552Q287 442 322.0 347.5Q357 253 429.0 195.0Q501 137 613 137Q669 137 716.0 152.0Q763 167 799.5 194.5Q836 222 861.0 260.0Q886 298 898 343L1070 294Q1048 219 1004.5 160.5Q961 102 901.0 60.5Q841 19 768.0 -2.5Q695 -24 613 -24Z"/>
    <path transform="translate(916.08 392.00) scale(0.01074 -0.01074)" d="M158 0V1118H338V0ZM249 1301Q198 1301 161.0 1336.0Q124 1371 124 1420Q124 1470 161.0 1504.5Q198 1539 249 1539Q301 1539 338.0 1504.5Q375 1470 375 1420Q375 1371 338.0 1336.0Q301 1301 249 1301Z"/>
    <path transform="translate(921.41 392.00) scale(0.01074 -0.01074)" d="M628 -24Q466 -24 348.5 48.0Q231 120 167.5 249.0Q104 378 104 550Q104 722 166.0 853.0Q228 984 341.5 1058.0Q455 1132 607 1132Q696 1132 782.5 1102.5Q869 1073 939.5 1007.5Q1010 942 1052.0 835.0Q1094 728 1094 573V498H226V650H997L913 594Q913 704 878.5 789.5Q844 875 776.0 923.5Q708 972 607 972Q506 972 434.0 922.5Q362 873 324.0 793.5Q286 714 286 623V522Q286 398 329.0 311.5Q372 225 449.5 180.5Q527 136 629 136Q695 136 749.0 155.0Q803 174 842.0 212.5Q881 251 902 308L1076 260Q1050 176 988.0 112.0Q926 48 834.5 12.0Q743 -24 628 -24Z"/>
    <path transform="translate(934.23 392.00) scale(0.01074 -0.01074)" d="M158 0V1118H332V946H344Q375 1031 454.5 1082.5Q534 1134 634 1134Q654 1134 681.5 1133.0Q709 1132 725 1131V950Q717 952 685.0 956.0Q653 960 617 960Q537 960 473.5 926.5Q410 893 374.0 834.5Q338 776 338 700V0Z"/>
    <path transform="translate(942.51 392.00) scale(0.01074 -0.01074)" d="M613 -24Q461 -24 346.5 48.0Q232 120 168.0 250.0Q104 380 104 552Q104 727 168.0 857.5Q232 988 346.5 1060.0Q461 1132 613 1132Q766 1132 881.0 1060.0Q996 988 1060.0 857.5Q1124 727 1124 552Q1124 380 1060.0 250.0Q996 120 881.0 48.0Q766 -24 613 -24ZM613 137Q726 137 799.0 195.0Q872 253 907.0 347.5Q942 442 942 552Q942 663 907.0 758.5Q872 854 799.0 912.5Q726 971 613 971Q501 971 429.0 912.5Q357 854 322.0 759.0Q287 664 287 552Q287 442 322.0 347.5Q357 253 429.0 195.0Q501 137 613 137Z"/>
  </g>
  <g fill="#6B6256">
    <path transform="translate(918.95 580.00) scale(0.01172 -0.01172)" d="M678 1118V964H20V1118ZM240 0V1267Q240 1364 285.5 1429.0Q331 1494 404.0 1527.0Q477 1560 558 1560Q622 1560 664.0 1549.5Q706 1539 726 1530L676 1376Q662 1381 639.5 1387.0Q617 1393 579 1393Q496 1393 458.0 1350.5Q420 1308 420 1227V0Z"/>
    <path transform="translate(927.83 580.00) scale(0.01172 -0.01172)" d="M158 0V1118H338V0ZM249 1301Q198 1301 161.0 1336.0Q124 1371 124 1420Q124 1470 161.0 1504.5Q198 1539 249 1539Q301 1539 338.0 1504.5Q375 1470 375 1420Q375 1371 338.0 1336.0Q301 1301 249 1301Z"/>
    <path transform="translate(933.64 580.00) scale(0.01172 -0.01172)" d="M338 670V0H158V1118H331L332 847H307Q358 1002 452.5 1067.0Q547 1132 674 1132Q787 1132 872.0 1085.5Q957 1039 1004.5 945.5Q1052 852 1052 710V0H872V695Q872 824 804.5 897.0Q737 970 620 970Q540 970 476.0 935.0Q412 900 375.0 833.0Q338 766 338 670Z"/>
    <path transform="translate(947.82 580.00) scale(0.01172 -0.01172)" d="M471 -26Q365 -26 278.5 14.0Q192 54 141.0 131.0Q90 208 90 318Q90 414 128.0 474.0Q166 534 229.5 568.5Q293 603 370.0 620.0Q447 637 525 647Q625 660 688.0 667.0Q751 674 781.5 691.0Q812 708 812 749V755Q812 825 786.0 873.5Q760 922 708.0 948.0Q656 974 578 974Q498 974 441.0 949.0Q384 924 348.5 886.5Q313 849 295 810L122 867Q165 969 238.0 1026.5Q311 1084 399.0 1108.0Q487 1132 573 1132Q629 1132 700.5 1118.5Q772 1105 838.5 1065.0Q905 1025 948.5 946.5Q992 868 992 737V0H815V152H803Q784 113 742.0 71.5Q700 30 633.0 2.0Q566 -26 471 -26ZM502 133Q602 133 671.0 172.0Q740 211 776.0 273.5Q812 336 812 404V559Q801 546 764.0 535.5Q727 525 679.5 517.0Q632 509 587.5 503.5Q543 498 517 495Q452 487 395.5 467.5Q339 448 305.0 410.5Q271 373 271 309Q271 251 301.0 212.0Q331 173 383.0 153.0Q435 133 502 133Z"/>
    <path transform="translate(961.30 580.00) scale(0.01172 -0.01172)" d="M338 670V0H158V1118H331L332 847H307Q358 1002 452.5 1067.0Q547 1132 674 1132Q787 1132 872.0 1085.5Q957 1039 1004.5 945.5Q1052 852 1052 710V0H872V695Q872 824 804.5 897.0Q737 970 620 970Q540 970 476.0 935.0Q412 900 375.0 833.0Q338 766 338 670Z"/>
    <path transform="translate(975.48 580.00) scale(0.01172 -0.01172)" d="M126 0V134L753 940V951H146V1118H985V975L376 178V167H1005V0Z"/>
    <path transform="translate(988.73 580.00) scale(0.01172 -0.01172)" d="M471 -26Q365 -26 278.5 14.0Q192 54 141.0 131.0Q90 208 90 318Q90 414 128.0 474.0Q166 534 229.5 568.5Q293 603 370.0 620.0Q447 637 525 647Q625 660 688.0 667.0Q751 674 781.5 691.0Q812 708 812 749V755Q812 825 786.0 873.5Q760 922 708.0 948.0Q656 974 578 974Q498 974 441.0 949.0Q384 924 348.5 886.5Q313 849 295 810L122 867Q165 969 238.0 1026.5Q311 1084 399.0 1108.0Q487 1132 573 1132Q629 1132 700.5 1118.5Q772 1105 838.5 1065.0Q905 1025 948.5 946.5Q992 868 992 737V0H815V152H803Q784 113 742.0 71.5Q700 30 633.0 2.0Q566 -26 471 -26ZM502 133Q602 133 671.0 172.0Q740 211 776.0 273.5Q812 336 812 404V559Q801 546 764.0 535.5Q727 525 679.5 517.0Q632 509 587.5 503.5Q543 498 517 495Q452 487 395.5 467.5Q339 448 305.0 410.5Q271 373 271 309Q271 251 301.0 212.0Q331 173 383.0 153.0Q435 133 502 133Z"/>
    <path transform="translate(1002.21 580.00) scale(0.01172 -0.01172)" d="M538 -24Q423 -24 333.5 9.5Q244 43 186.0 109.0Q128 175 108 271L279 312Q303 220 369.5 177.0Q436 134 536 134Q653 134 722.5 184.0Q792 234 792 303Q792 361 751.5 399.5Q711 438 628 457L442 501Q290 537 216.0 612.5Q142 688 142 806Q142 902 196.0 975.5Q250 1049 343.5 1090.5Q437 1132 556 1132Q671 1132 751.5 1097.5Q832 1063 882.5 1002.5Q933 942 958 863L795 821Q772 881 718.5 930.0Q665 979 557 979Q457 979 390.5 933.0Q324 887 324 817Q324 755 369.0 717.5Q414 680 512 657L681 617Q833 581 906.0 505.5Q979 430 979 315Q979 217 923.5 140.5Q868 64 768.5 20.0Q669 -24 538 -24Z"/>
    <path transform="translate(1014.88 580.00) scale(0.01172 -0.01172)" d="M677 -24Q571 -24 506.0 12.5Q441 49 406.0 95.5Q371 142 352 173H332V0H158V1490H338V939H352Q371 969 405.0 1014.5Q439 1060 503.0 1096.0Q567 1132 676 1132Q816 1132 922.5 1062.0Q1029 992 1089.5 862.5Q1150 733 1150 556Q1150 378 1090.0 248.0Q1030 118 923.5 47.0Q817 -24 677 -24ZM650 137Q755 137 825.5 193.5Q896 250 931.5 345.5Q967 441 967 558Q967 674 932.0 767.5Q897 861 826.5 916.0Q756 971 650 971Q547 971 477.0 919.0Q407 867 371.5 774.5Q336 682 336 558Q336 434 372.0 339.0Q408 244 478.5 190.5Q549 137 650 137Z"/>
    <path transform="translate(1029.57 580.00) scale(0.01172 -0.01172)" d="M613 -24Q461 -24 346.5 48.0Q232 120 168.0 250.0Q104 380 104 552Q104 727 168.0 857.5Q232 988 346.5 1060.0Q461 1132 613 1132Q766 1132 881.0 1060.0Q996 988 1060.0 857.5Q1124 727 1124 552Q1124 380 1060.0 250.0Q996 120 881.0 48.0Q766 -24 613 -24ZM613 137Q726 137 799.0 195.0Q872 253 907.0 347.5Q942 442 942 552Q942 663 907.0 758.5Q872 854 799.0 912.5Q726 971 613 971Q501 971 429.0 912.5Q357 854 322.0 759.0Q287 664 287 552Q287 442 322.0 347.5Q357 253 429.0 195.0Q501 137 613 137Z"/>
    <path transform="translate(1043.96 580.00) scale(0.01172 -0.01172)" d="M295 -13Q239 -13 199.5 26.5Q160 66 160 122Q160 178 199.5 217.5Q239 257 295 257Q351 257 390.5 217.5Q430 178 430 122Q430 66 390.5 26.5Q351 -13 295 -13Z"/>
    <path transform="translate(1050.88 580.00) scale(0.01172 -0.01172)" d="M613 -24Q461 -24 346.5 48.0Q232 120 168.0 250.0Q104 380 104 552Q104 727 168.0 857.5Q232 988 346.5 1060.0Q461 1132 613 1132Q694 1132 766.0 1111.0Q838 1090 897.5 1050.5Q957 1011 1000.0 953.5Q1043 896 1066 823L893 774Q881 817 856.0 853.0Q831 889 795.5 915.5Q760 942 714.0 956.5Q668 971 613 971Q501 971 429.0 912.5Q357 854 322.0 759.0Q287 664 287 552Q287 442 322.0 347.5Q357 253 429.0 195.0Q501 137 613 137Q669 137 716.0 152.0Q763 167 799.5 194.5Q836 222 861.0 260.0Q886 298 898 343L1070 294Q1048 219 1004.5 160.5Q961 102 901.0 60.5Q841 19 768.0 -2.5Q695 -24 613 -24Z"/>
    <path transform="translate(1064.59 580.00) scale(0.01172 -0.01172)" d="M613 -24Q461 -24 346.5 48.0Q232 120 168.0 250.0Q104 380 104 552Q104 727 168.0 857.5Q232 988 346.5 1060.0Q461 1132 613 1132Q766 1132 881.0 1060.0Q996 988 1060.0 857.5Q1124 727 1124 552Q1124 380 1060.0 250.0Q996 120 881.0 48.0Q766 -24 613 -24ZM613 137Q726 137 799.0 195.0Q872 253 907.0 347.5Q942 442 942 552Q942 663 907.0 758.5Q872 854 799.0 912.5Q726 971 613 971Q501 971 429.0 912.5Q357 854 322.0 759.0Q287 664 287 552Q287 442 322.0 347.5Q357 253 429.0 195.0Q501 137 613 137Z"/>
    <path transform="translate(1078.98 580.00) scale(0.01172 -0.01172)" d="M158 0V1118H333L334 868H320Q343 959 392.5 1018.5Q442 1078 508.5 1108.0Q575 1138 647 1138Q769 1138 844.5 1063.0Q920 988 942 866H918Q938 950 991.0 1011.0Q1044 1072 1119.5 1105.0Q1195 1138 1284 1138Q1381 1138 1461.0 1096.0Q1541 1054 1588.5 969.0Q1636 884 1636 754V0H1456V749Q1456 870 1388.0 922.0Q1320 974 1230 974Q1155 974 1100.5 942.5Q1046 911 1016.5 856.0Q987 801 987 730V0H807V767Q807 860 745.0 917.0Q683 974 588 974Q523 974 465.5 943.5Q408 913 373.0 853.0Q338 793 338 704V0Z"/>
  </g>
</svg>
